<svg id="Layer_1" data-name="Layer 1" xmlns="http://www.w3.org/2000/svg" viewBox="0 0 960 960"><defs><style>.cls-1{fill:#fff;}</style></defs><path d="M0-.1v960H960V-.1ZM473,479.9,10.58,942.29V17.5ZM17.65,10.43H942.43L480,472.82ZM480,487,942.43,949.36H17.65Zm7.07-7.07L949.5,17.5V942.29Z" transform="translate(-0.04 0.1)"/><rect class="cls-1" x="183.95" y="354.64" width="606.24" height="258.89"/><path d="M294.84,444.16h12.49l30.06,48.93H338l-.57-13v-36h10.43v67.25h-11l-31.56-51.48h-.55l.55,13v38.51H294.84Z" transform="translate(-0.04 0.1)"/><path d="M371,509.57a23.42,23.42,0,0,1-8.92-9.15,27.94,27.94,0,0,1,0-25.93,23.51,23.51,0,0,1,8.92-9.16A25.35,25.35,0,0,1,384,462a25,25,0,0,1,12.95,3.38,23.8,23.8,0,0,1,8.93,9.21,27.74,27.74,0,0,1,0,25.83,23.38,23.38,0,0,1-8.93,9.15,26.81,26.81,0,0,1-25.92,0Zm20.29-8.07a14.24,14.24,0,0,0,5.41-5.55,17.18,17.18,0,0,0,2-8.5,17,17,0,0,0-2-8.45,14.28,14.28,0,0,0-5.41-5.49,14.87,14.87,0,0,0-14.65,0,14.28,14.28,0,0,0-5.41,5.49,17,17,0,0,0-2,8.45,17.18,17.18,0,0,0,2,8.5,14.24,14.24,0,0,0,5.41,5.55,14.93,14.93,0,0,0,14.65,0Z" transform="translate(-0.04 0.1)"/><path d="M442.21,444.16h10.52v57.19h28.84v10.06H442.21Z" transform="translate(-0.04 0.1)"/><path d="M498.94,509.57a23.51,23.51,0,0,1-8.93-9.15,28,28,0,0,1,0-25.93,23.61,23.61,0,0,1,8.93-9.16,26.71,26.71,0,0,1,25.92.05,23.87,23.87,0,0,1,8.93,9.21,27.74,27.74,0,0,1,0,25.83,23.45,23.45,0,0,1-8.93,9.15,26.81,26.81,0,0,1-25.92,0Zm20.29-8.07a14.21,14.21,0,0,0,5.4-5.55,17.08,17.08,0,0,0,2-8.5,16.86,16.86,0,0,0-2-8.45,14.25,14.25,0,0,0-5.4-5.49,14.88,14.88,0,0,0-14.66,0,14.25,14.25,0,0,0-5.4,5.49,16.86,16.86,0,0,0-2,8.45,17.08,17.08,0,0,0,2,8.5,14.21,14.21,0,0,0,5.4,5.55,15,15,0,0,0,14.66,0Z" transform="translate(-0.04 0.1)"/><path d="M553.46,529.16a20,20,0,0,1-7.75-9.58l9.68-4a13,13,0,0,0,4.83,6.05,13.45,13.45,0,0,0,7.84,2.31q6.59,0,10.29-4t3.71-11.26v-4.42h-.56a16.12,16.12,0,0,1-6.25,5.31,20.06,20.06,0,0,1-9,1.93,21.54,21.54,0,0,1-11.17-3.07,22.21,22.21,0,0,1-8.23-8.7,28.76,28.76,0,0,1,0-25.78,22.46,22.46,0,0,1,8.23-8.74A21.22,21.22,0,0,1,566.28,462a19.73,19.73,0,0,1,8.92,2,16.52,16.52,0,0,1,6.3,5.36h.56V463.5h9.87v45.28a27.35,27.35,0,0,1-3,13.28,19.9,19.9,0,0,1-8.41,8.32,26.51,26.51,0,0,1-12.45,2.82Q559.24,533.2,553.46,529.16Zm21.65-28.95a13,13,0,0,0,5.08-5.27,17.1,17.1,0,0,0,1.87-8.19q0-7.22-4-11.24a13.4,13.4,0,0,0-9.91-4,14.08,14.08,0,0,0-7,1.8,13,13,0,0,0-5.07,5.23,19,19,0,0,0,0,16.46,13,13,0,0,0,5.07,5.23,14.08,14.08,0,0,0,7,1.8A13.93,13.93,0,0,0,575.11,500.21Z" transform="translate(-0.04 0.1)"/><path d="M613.05,509.57a23.42,23.42,0,0,1-8.92-9.15,27.94,27.94,0,0,1,0-25.93,23.51,23.51,0,0,1,8.92-9.16A25.35,25.35,0,0,1,626,462a25.06,25.06,0,0,1,13,3.38,23.78,23.78,0,0,1,8.92,9.21,27.66,27.66,0,0,1,0,25.83,23.35,23.35,0,0,1-8.92,9.15,26.83,26.83,0,0,1-25.93,0Zm20.29-8.07a14.08,14.08,0,0,0,5.4-5.55,17.08,17.08,0,0,0,2-8.5,16.86,16.86,0,0,0-2-8.45,14.11,14.11,0,0,0-5.4-5.49,14.85,14.85,0,0,0-14.64,0,14.21,14.21,0,0,0-5.41,5.49,17,17,0,0,0-2,8.45,17.18,17.18,0,0,0,2,8.5,14.17,14.17,0,0,0,5.41,5.55,14.91,14.91,0,0,0,14.64,0Z" transform="translate(-0.04 0.1)"/></svg>